# xmcd
#
# Track frame offsets: 
#        150
#        12440
#        32864
#        46595
#        60490
#        88457
#        101253
#        112936
#        124350
#        138544
#        150148
#        162055
#
# Disc length: 2421 seconds
#
# Revision: 0
# Processed by: cddbd v1.5.2PL0 Copyright (c) Steve Scherf et al.
# Submitted via: ExactAudioCopy v0.95a5
#
DISCID=8e09730c
DTITLE=Willie Edwards - Everlastin' Tears
DYEAR=1996
DGENRE=Blues
TTITLE0=Everlastin' Tears
TTITLE1=Dollar In
TTITLE2=Been A Long Time
TTITLE3=Read Between The Lines
TTITLE4=Helpless, Hopeless Feeling
TTITLE5=True What They Say
TTITLE6=Heart Of Deception
TTITLE7=Can't Create Desire
TTITLE8=Won't Be Back
TTITLE9=Bottom's Falling Out
TTITLE10=Company Store
TTITLE11='90s Blues
EXTD=
EXTT0=
EXTT1=
EXTT2=
EXTT3=
EXTT4=
EXTT5=
EXTT6=
EXTT7=
EXTT8=
EXTT9=
EXTT10=
EXTT11=
PLAYORDER=
